<svg width="128" height="28" viewBox="0 0 128 28" fill="none" xmlns="http://www.w3.org/2000/svg">
<g clip-path="url(#clip0)">
<path d="M26.2418 3.38695C23.9147 1.04289 21.9324 1.04289 19.6053 3.38695L5.64258 17.4513L7.62493 19.448C9.95205 21.7921 11.9344 21.7921 14.2615 19.448L28.2242 5.38373L26.2418 3.38695Z" fill="#05AA76"/>
<path d="M29.5601 6.72925L21.9323 14.4559C20.1223 16.2791 20.1223 18.6665 21.5875 20.1424C23.0528 21.6183 25.423 21.6617 27.2329 19.7952L31.5424 15.4543C33.8695 13.1103 33.8695 11.0701 31.5424 8.72603L29.5601 6.72925Z" fill="#05AA76"/>
<path d="M12.2792 2.73582C10.814 1.25994 8.48688 1.21653 6.63381 3.03968L2.32434 7.38052C0.0403237 9.72457 0.0403237 11.7648 2.32434 14.1088L4.3067 16.1056L11.9345 8.42232C13.7875 6.55576 13.7444 4.21171 12.2792 2.73582Z" fill="#05AA76"/>
<path d="M67.3971 6.72942H62.786L57.5715 11.8516V0.782471H53.8223V21.5751H57.5715V16.4095L59.3384 14.6297L63.734 21.5751H67.9573L61.9672 12.0686L67.3971 6.72942Z" fill="#05AA76"/>
<path d="M82.0497 6.72925H78.2573V14.6296C78.2573 15.8016 77.9126 16.8 77.2662 17.6247C76.5766 18.4061 75.7579 18.8402 74.6805 18.8402C73.8186 18.8402 73.1722 18.5363 72.7843 17.9286C72.3534 17.3209 72.181 16.4093 72.181 15.1505V6.72925H68.3887V15.1071C68.3887 17.3209 68.8196 19.0138 69.6815 20.1424C70.5434 21.271 71.8362 21.8788 73.5169 21.8788C74.6374 21.8788 75.6286 21.6183 76.4905 21.0974C77.3524 20.5765 77.9988 19.882 78.3435 18.9704H78.3866C78.3866 19.8386 78.5159 20.7067 78.6452 21.5749H82.222C82.0497 20.0556 82.0066 18.7968 82.0066 17.7984V6.72925H82.0497Z" fill="#05AA76"/>
<path d="M92.522 6.42554C91.5739 6.42554 90.6689 6.64258 89.8932 7.03325C89.1175 7.42393 88.4711 7.98824 87.997 8.68277H87.9539C87.9539 7.98824 87.9108 7.33711 87.8677 6.7294H84.334C84.4202 7.7712 84.4633 9.07345 84.4633 10.6796V27.522H88.2556V20.0558H88.3418C88.6865 20.6201 89.2468 21.0542 89.9794 21.4014C90.712 21.7053 91.5308 21.8789 92.4789 21.8789C94.4181 21.8789 95.9265 21.1844 97.0038 19.8387C98.0812 18.4931 98.6414 16.5831 98.6414 14.1956C98.6414 11.8082 98.0812 9.89821 97.0038 8.50914C95.8834 7.12007 94.375 6.42554 92.522 6.42554ZM93.9872 17.7551C93.427 18.6233 92.6513 19.0574 91.617 19.0574C90.6689 19.0574 89.8501 18.7535 89.2037 18.1024C88.5573 17.4513 88.2125 16.6699 88.2125 15.7149V12.6763C88.2125 11.6779 88.5142 10.8966 89.1606 10.2889C89.807 9.68116 90.6258 9.37731 91.6601 9.37731C93.7717 9.37731 94.806 10.94 94.806 14.1088C94.806 15.6281 94.5043 16.887 93.9872 17.7551Z" fill="#05AA76"/>
<path d="M107.691 6.25195C105.321 6.25195 103.468 6.94649 102.132 8.29215C100.796 9.63781 100.106 11.5478 100.106 13.9786C100.106 16.4095 100.753 18.2761 102.132 19.6651C103.468 21.0108 105.321 21.7053 107.691 21.7053C110.061 21.7053 111.914 21.0108 113.293 19.6651C114.629 18.3195 115.319 16.4095 115.319 13.9786C115.319 11.5478 114.629 9.68121 113.293 8.29215C111.957 6.94649 110.061 6.25195 107.691 6.25195ZM110.535 17.5815C109.846 18.4497 108.898 18.8838 107.691 18.8838C106.484 18.8838 105.536 18.4497 104.89 17.5815C104.2 16.7134 103.856 15.4979 103.856 13.9786C103.856 12.4593 104.2 11.2439 104.89 10.3757C105.579 9.50758 106.484 9.0735 107.691 9.0735C108.898 9.0735 109.846 9.50758 110.535 10.3757C111.225 11.2439 111.57 12.4593 111.57 13.9786C111.57 15.4979 111.225 16.7134 110.535 17.5815Z" fill="#05AA76"/>
<path d="M50.1591 11.3306C49.4265 10.7228 48.4353 10.1585 47.1856 9.55081C46.7115 9.33377 46.2806 9.11673 45.8927 8.89969C45.2463 8.55242 44.6861 8.29197 44.2982 8.03152C43.6518 7.64085 43.2208 7.29358 42.9623 6.98972C42.7037 6.68586 42.5744 6.3386 42.5744 5.90451C42.5744 5.25339 42.833 4.73249 43.307 4.38522C43.7811 4.03795 44.5137 3.86432 45.4187 3.86432C46.8408 3.86432 48.0475 4.47204 49.0386 5.68747L51.4519 3.2566C50.9348 2.43184 50.1591 1.78072 49.1679 1.30323C48.0044 0.738917 46.7115 0.435059 45.2032 0.435059C43.8673 0.435059 42.6606 0.6521 41.6263 1.12959C40.5921 1.56368 39.7733 2.2148 39.213 3.03956C38.6528 3.86432 38.3512 4.8193 38.3512 5.90451C38.3512 6.9029 38.5666 7.77107 38.9545 8.50901C39.3423 9.24696 39.9888 9.94149 40.8075 10.5926C41.3678 10.9833 42.0573 11.4174 42.833 11.8949C43.2639 12.1553 43.738 12.3724 44.2551 12.6328C45.3756 13.1971 46.1944 13.6312 46.6684 13.9351C47.1425 14.2823 47.4872 14.5862 47.6596 14.89C47.832 15.1939 47.9182 15.628 47.9182 16.1055C47.9182 16.8 47.6596 17.3209 47.0994 17.755C46.5391 18.1891 45.8065 18.3627 44.9015 18.3627C44.0827 18.3627 43.2208 18.1023 42.3159 17.6248C41.4109 17.1473 40.5921 16.4962 39.9457 15.7148L37.4893 18.1023C38.265 19.2743 39.2992 20.1859 40.549 20.837C41.7987 21.4881 43.1778 21.792 44.7292 21.792C46.1944 21.792 47.4872 21.5315 48.6077 21.054C49.7281 20.5765 50.59 19.882 51.1503 18.9704C51.7536 18.0589 52.0553 17.0171 52.0553 15.845C52.0553 14.8466 51.8829 13.9785 51.5812 13.2405C51.3657 12.5894 50.8486 11.8949 50.1591 11.3306Z" fill="#05AA76"/>
<path d="M127.213 15.2371C126.955 14.7162 126.481 14.2822 125.877 13.8481C125.274 13.4574 124.412 13.0233 123.335 12.5892C123.292 12.5458 123.205 12.5458 123.162 12.5024C123.119 12.5024 123.076 12.459 123.033 12.459C122.947 12.4156 122.861 12.3722 122.731 12.3288C122.645 12.2854 122.559 12.242 122.473 12.242C122.387 12.1986 122.3 12.1551 122.257 12.1551C122.257 12.1551 122.257 12.1551 122.214 12.1551C122.128 12.1117 122.085 12.1117 121.999 12.0683H121.956C121.912 12.0249 121.826 12.0249 121.783 11.9815C121.74 11.9815 121.74 11.9815 121.697 11.9381C121.654 11.9381 121.611 11.8947 121.568 11.8947C121.525 11.8947 121.525 11.8513 121.482 11.8513C121.438 11.8513 121.438 11.8079 121.395 11.8079C121.352 11.7645 121.309 11.7645 121.223 11.7211C120.835 11.504 120.577 11.3304 120.447 11.1568C120.318 10.9831 120.232 10.7661 120.232 10.4622C120.232 10.0715 120.404 9.76769 120.706 9.55065C121.051 9.3336 121.482 9.24679 122.085 9.24679C123.248 9.24679 124.196 9.68087 124.886 10.5056L126.825 8.55225C126.308 7.90113 125.662 7.42364 124.929 7.03296C124.024 6.59888 123.033 6.38184 121.956 6.38184C120.318 6.38184 118.982 6.77251 117.991 7.51045C117 8.2484 116.483 9.24679 116.483 10.4622C116.483 11.504 116.827 12.3722 117.56 13.1101C117.646 13.1969 117.732 13.2838 117.818 13.3272C117.862 13.3706 117.905 13.3706 117.948 13.414C117.991 13.4574 118.077 13.5008 118.12 13.5442C118.163 13.5876 118.206 13.631 118.293 13.6744C118.336 13.7178 118.422 13.7613 118.465 13.8047C118.508 13.8481 118.594 13.8915 118.637 13.9349C118.68 13.9783 118.767 14.0217 118.81 14.0217C118.896 14.0651 118.939 14.1085 119.025 14.1519C119.068 14.1953 119.154 14.1953 119.198 14.2387C119.284 14.2822 119.37 14.3256 119.456 14.369C119.499 14.4124 119.585 14.4124 119.628 14.4558C119.715 14.4992 119.801 14.5426 119.93 14.586C119.973 14.6294 120.059 14.6294 120.103 14.6728C120.189 14.7162 120.318 14.7596 120.404 14.8031C120.447 14.8031 120.447 14.8465 120.49 14.8465C120.577 14.8899 120.706 14.9333 120.792 14.9767C120.964 15.0635 121.137 15.1069 121.309 15.1937C122.343 15.5844 122.99 15.9317 123.335 16.1487C123.636 16.4092 123.809 16.713 123.809 17.1471C123.809 17.668 123.593 18.1021 123.162 18.4494C122.731 18.7966 122.171 18.9703 121.525 18.9703C120.964 18.9703 120.404 18.84 119.844 18.5362C119.284 18.2323 118.853 17.8416 118.508 17.3642L116.439 19.4478C116.827 20.0989 117.431 20.6198 118.249 21.0539C119.241 21.5748 120.361 21.8352 121.611 21.8352C122.774 21.8352 123.852 21.6182 124.714 21.2275C125.619 20.8368 126.308 20.2725 126.825 19.5346C127.342 18.7966 127.558 17.9719 127.558 17.0169C127.601 16.3223 127.472 15.7146 127.213 15.2371Z" fill="#05AA76"/>
</g>
<defs>
<clipPath id="clip0">
<rect width="127" height="27" fill="white" transform="translate(0.600586 0.478516)"/>
</clipPath>
</defs>
</svg>
