<svg width="40" height="29" viewBox="0 0 40 29" fill="none" xmlns="http://www.w3.org/2000/svg">
<g clip-path="url(#clip0)">
<path d="M12.3842 0.118896L1.59337 11.35C-0.0832068 13.0942 -0.0832068 15.9154 1.59337 17.6596L4.9508 21.1527L15.7459 9.9216C17.4225 8.17732 17.4225 5.3562 15.7459 3.61192L12.3842 0.118896Z" fill="#00B481"/>
<path d="M34.642 7.85669L23.8512 19.0833C22.1746 20.8276 22.1746 23.6487 23.8512 25.393L27.2086 28.886L38.0037 17.6549C39.6802 15.9107 39.6802 13.0895 38.0037 11.3453L34.642 7.85669Z" fill="#00B481"/>
<path d="M5.98145 22.225L24.1757 3.3004C25.8523 1.55612 28.5639 1.55612 30.2405 3.3004L33.5979 6.79342L15.4036 25.718C13.7271 27.4623 11.0155 27.4623 9.33888 25.718L5.98145 22.225Z" fill="#00B481"/>
</g>
<defs>
<clipPath id="clip0">
<rect width="38.9206" height="28.7674" fill="white" transform="translate(0.335938 0.118896)"/>
</clipPath>
</defs>
</svg>
